<svg xmlns="http://www.w3.org/2000/svg" width="181.225" height="206.025" viewBox="0 0 181.225 206.025">
  <g id="loginBack" transform="translate(0)">
    <path id="Path_2544" data-name="Path 2544" d="M356.4,310.841s10.6.391,9.467,9.9c0,0-.408,10.623-1.446,43.229" transform="translate(-273.902 -182.431)" fill="none" stroke="#50aa9b" stroke-miterlimit="10" stroke-width="1"/>
    <g id="Group_2428" data-name="Group 2428" transform="translate(80.349)">
      <path id="Path_2545" data-name="Path 2545" d="M314.853,223.058a35.764,35.764,0,0,1,15.647,21s-16.513-22.3-37.746-14.068C292.754,229.985,305.1,216.662,314.853,223.058Z" transform="translate(-229.624 -218.336)" fill="#50aa9b"/>
      <path id="Path_2546" data-name="Path 2546" d="M390.027,226s-23.964-11.22-28.4,31.987c-2.712,26.381-14.484,44.452-41.641,50.486,0,0-55.522-51.532,27.157-87.623,0,0,9.723-3.738,17.233,0,0,0,16.75-2.55,25.651,5.15Z" transform="translate(-301.739 -219.19)" fill="#85d0be"/>
      <path id="Path_2547" data-name="Path 2547" d="M367.853,221.321s-23.8,19.572-32.382,34.677c-10.68,18.8-8.925,39.464-13.882,138.941" transform="translate(-307.378 -218.336)" fill="none" stroke="#50aa9b" stroke-miterlimit="10" stroke-width="1.705"/>
    </g>
    <g id="Group_2429" data-name="Group 2429" transform="translate(0 49.259)">
      <path id="Path_2548" data-name="Path 2548" d="M413.04,259.076a26.136,26.136,0,0,0-9.728,16.477s10.255-17.49,26.326-13.172C429.638,262.381,419.623,253.666,413.04,259.076Z" transform="translate(-403.312 -253.162)" fill="#50aa9b"/>
      <path id="Path_2549" data-name="Path 2549" d="M368.26,262.019s16.534-10.026,23.139,21.019c4.032,18.955,14,31.166,34.2,33.427,0,0,36.312-41.782-26.581-61.541,0,0-7.357-1.957-12.521,1.346,0,0-12.372-.545-18.237,5.749Z" transform="translate(-360.592 -254.348)" fill="#85d0be"/>
      <path id="Path_2550" data-name="Path 2550" d="M370.624,256.287s18.755,8.3,26.238,22.662c10.5,20.153,11.9,39.218,18.309,87.849" transform="translate(-343.047 -253.571)" fill="none" stroke="#50aa9b" stroke-miterlimit="10" stroke-width="1.246"/>
    </g>
    <g id="Group_2430" data-name="Group 2430" transform="translate(73.182 86.439)">
      <path id="Path_2551" data-name="Path 2551" d="M384.947,296.588s-40.05.272-45.927,17.275c-7.658-2.473-11.321-18.336,2.991-27.734S384.733,290.179,384.947,296.588Z" transform="translate(-332.275 -280.078)" fill="#50aa9b"/>
      <path id="Path_2552" data-name="Path 2552" d="M355.911,285.226s14.739-4.059,22.643,5.981c12.283,15.6-.427,57.206-16.662,57.248-11.2.028-18.648-29.28-23.71-38.022-7.049-12.177-13.03-22.151-26.487-23.5a49.953,49.953,0,0,1,44.216-1.707Z" transform="translate(-301.959 -280.885)" fill="#85d0be"/>
      <path id="Path_2553" data-name="Path 2553" d="M327.507,287.792l-1-1.118-1.1-1.009c-.4-.29-.775-.614-1.182-.873l-.611-.382c-.189-.094-.416-.226-.563-.284a24.011,24.011,0,0,1,2.691-.511c.284.228.562.461.846.689l1.176,1.167c.359.415.7.842,1.049,1.264a27.941,27.941,0,0,1,1.8,2.718,24.1,24.1,0,0,1,1.4,2.918,22.763,22.763,0,0,1,1.056,3.036l.425,1.545c.067.258.148.513.2.773l.134.787c.174,1.051.373,2.1.521,3.147l.242,3.171a27.468,27.468,0,0,1,.062,3.168c-.02,1.055,0,2.111-.052,3.164l-.28,3.148c-.109,1.047-.141,2.1-.345,3.136l-.5,3.113c-.185,1.034-.29,2.081-.556,3.1l-1.4,6.137,1.164-6.18c.226-1.023.29-2.074.436-3.109l.381-3.116c.163-1.034.154-2.083.224-3.126l.158-3.126c.008-1.042-.049-2.085-.07-3.126a26.8,26.8,0,0,0-.178-3.112l-.354-3.092c-.185-1.019-.419-2.026-.625-3.038l-.158-.758c-.062-.249-.151-.492-.226-.738l-.465-1.47a21.238,21.238,0,0,0-1.118-2.858,22.6,22.6,0,0,0-1.418-2.7,11.519,11.519,0,0,0-.848-1.255,11.835,11.835,0,0,0-.916-1.2Z" transform="translate(-269.073 -279.79)" fill="#50be9c"/>
      <path id="Path_2554" data-name="Path 2554" d="M369.263,291.606s-13.973,4.788-8.632,17c0,0,1.051,19.965,8.632,60.246" transform="translate(-354.614 -276.585)" fill="none" stroke="#50aa9b" stroke-miterlimit="10" stroke-width="1"/>
    </g>
    <path id="Path_2555" data-name="Path 2555" d="M356.722,379.777h23.36a4.989,4.989,0,0,0,4.912-4.116l7.675-43.178H344.135l7.674,43.178a4.991,4.991,0,0,0,4.913,4.116Z" transform="translate(-283.432 -173.752)" fill="#666"/>
    <rect id="Rectangle_984" data-name="Rectangle 984" width="55.876" height="11.896" rx="1.892" transform="translate(57.032 154.973)" fill="#c8c1be"/>
    <g id="Group_2431" data-name="Group 2431" transform="translate(38.256 120.463)">
      <path id="Path_2556" data-name="Path 2556" d="M354.67,321.967s27.6-8.13,35.174,2.344c4.754-3.291,3.979-14.962-7.817-18.454s-28.541,11.657-27.357,16.11Z" transform="translate(-336.268 -305.101)" fill="#50aa9b"/>
      <path id="Path_2557" data-name="Path 2557" d="M377.13,313.933s-10.98.269-14.332,8.816c-5.208,13.281,22.033,32.84,22.033,32.84s-.193-21.427,2.267-28.255c5.122-14.217,11.822-17.687,20.8-21.407A35.886,35.886,0,0,0,377.13,313.933Z" transform="translate(-362.137 -305.169)" fill="#85d0be"/>
      <path id="Path_2558" data-name="Path 2558" d="M383.755,314.872l.457-.978.544-.921c.213-.282.406-.583.632-.846l.342-.391c.109-.1.24-.241.328-.312a17.141,17.141,0,0,0-1.957.207c-.148.216-.291.434-.438.65l-.566,1.047c-.161.36-.307.726-.46,1.087a9.258,9.258,0,0,0-.371,1.114,9.407,9.407,0,0,0-.3,1.129,17.167,17.167,0,0,0-.353,2.3,16.14,16.14,0,0,0-.1,2.309l.029,1.15c.007.192,0,.384.021.574l.07.57c.1.758.179,1.519.294,2.273l.493,2.23a19.467,19.467,0,0,0,.615,2.191c.233.722.44,1.451.692,2.165l.846,2.107c.293.7.535,1.417.888,2.085l.992,2.037c.343.673.632,1.372,1.027,2.016l2.237,3.93-2.085-4.008c-.367-.657-.63-1.366-.946-2.048l-.909-2.064c-.325-.677-.538-1.4-.8-2.1l-.759-2.117c-.223-.716-.4-1.444-.6-2.165a19.153,19.153,0,0,1-.523-2.177l-.4-2.2c-.084-.738-.133-1.481-.2-2.219l-.048-.553c-.01-.185,0-.37,0-.555l.015-1.108a15.16,15.16,0,0,1,.175-2.2,16.138,16.138,0,0,1,.415-2.151,8.336,8.336,0,0,1,.322-1.04,8.164,8.164,0,0,1,.381-1.018Z" transform="translate(-371.082 -302.66)" fill="#50be9c"/>
    </g>
  </g>
</svg>
